<mxfile host="Electron" agent="Mozilla/5.0 (Windows NT 10.0; Win64; x64) AppleWebKit/537.36 (KHTML, like Gecko) draw.io/26.0.15 Chrome/132.0.6834.196 Electron/34.2.0 Safari/537.36" version="26.0.15">
  <diagram name="Page-1" id="2tNYFneCJabBijowP1-W">
    <mxGraphModel dx="2074" dy="1196" grid="1" gridSize="10" guides="1" tooltips="1" connect="1" arrows="1" fold="1" page="1" pageScale="1" pageWidth="850" pageHeight="1100" math="0" shadow="0">
      <root>
        <mxCell id="0" />
        <mxCell id="1" parent="0" />
        <mxCell id="RSJkepZqgb9fMPbeoE4M-1" value="&lt;b&gt;&lt;font style=&quot;font-size: 16px;&quot;&gt;crm_cust_info&lt;/font&gt;&lt;/b&gt;" style="swimlane;fontStyle=0;childLayout=stackLayout;horizontal=1;startSize=26;fillColor=#f5f5f5;horizontalStack=0;resizeParent=1;resizeParentMax=0;resizeLast=0;collapsible=1;marginBottom=0;html=1;strokeColor=#666666;fontColor=#333333;rounded=1;shadow=1;glass=0;fontSize=15;" parent="1" vertex="1">
          <mxGeometry x="285" y="580" width="150" height="94" as="geometry" />
        </mxCell>
        <mxCell id="RSJkepZqgb9fMPbeoE4M-2" value="cst_id" style="text;strokeColor=none;fillColor=none;align=left;verticalAlign=top;spacingLeft=4;spacingRight=4;overflow=hidden;rotatable=0;points=[[0,0.5],[1,0.5]];portConstraint=eastwest;whiteSpace=wrap;html=1;fontSize=15;" parent="RSJkepZqgb9fMPbeoE4M-1" vertex="1">
          <mxGeometry y="26" width="150" height="34" as="geometry" />
        </mxCell>
        <mxCell id="RSJkepZqgb9fMPbeoE4M-24" value="cst_key" style="text;strokeColor=none;fillColor=none;align=left;verticalAlign=top;spacingLeft=4;spacingRight=4;overflow=hidden;rotatable=0;points=[[0,0.5],[1,0.5]];portConstraint=eastwest;whiteSpace=wrap;html=1;fontSize=15;" parent="RSJkepZqgb9fMPbeoE4M-1" vertex="1">
          <mxGeometry y="60" width="150" height="34" as="geometry" />
        </mxCell>
        <mxCell id="RSJkepZqgb9fMPbeoE4M-5" value="&lt;font style=&quot;font-size: 14px;&quot;&gt;Customer Information&lt;/font&gt;" style="text;html=1;align=center;verticalAlign=middle;whiteSpace=wrap;rounded=0;" parent="1" vertex="1">
          <mxGeometry x="290" y="550" width="140" height="30" as="geometry" />
        </mxCell>
        <mxCell id="RSJkepZqgb9fMPbeoE4M-6" value="&lt;b&gt;&lt;font style=&quot;font-size: 16px;&quot;&gt;crm_prd_info&lt;/font&gt;&lt;/b&gt;" style="swimlane;fontStyle=0;childLayout=stackLayout;horizontal=1;startSize=26;fillColor=#f5f5f5;horizontalStack=0;resizeParent=1;resizeParentMax=0;resizeLast=0;collapsible=1;marginBottom=0;html=1;strokeColor=#666666;fontColor=#333333;rounded=1;shadow=1;glass=0;fontSize=15;" parent="1" vertex="1">
          <mxGeometry x="280" y="220" width="150" height="60" as="geometry" />
        </mxCell>
        <mxCell id="RSJkepZqgb9fMPbeoE4M-7" value="prd_key" style="text;strokeColor=none;fillColor=none;align=left;verticalAlign=top;spacingLeft=4;spacingRight=4;overflow=hidden;rotatable=0;points=[[0,0.5],[1,0.5]];portConstraint=eastwest;whiteSpace=wrap;html=1;fontSize=15;" parent="RSJkepZqgb9fMPbeoE4M-6" vertex="1">
          <mxGeometry y="26" width="150" height="34" as="geometry" />
        </mxCell>
        <mxCell id="RSJkepZqgb9fMPbeoE4M-8" value="&lt;font style=&quot;font-size: 14px;&quot;&gt;Product Information&lt;/font&gt;" style="text;html=1;align=center;verticalAlign=middle;whiteSpace=wrap;rounded=0;" parent="1" vertex="1">
          <mxGeometry x="285" y="190" width="140" height="30" as="geometry" />
        </mxCell>
        <mxCell id="RSJkepZqgb9fMPbeoE4M-9" value="&lt;b&gt;&lt;font style=&quot;font-size: 16px;&quot;&gt;crm_sales_details&lt;/font&gt;&lt;/b&gt;" style="swimlane;fontStyle=0;childLayout=stackLayout;horizontal=1;startSize=26;fillColor=#f5f5f5;horizontalStack=0;resizeParent=1;resizeParentMax=0;resizeLast=0;collapsible=1;marginBottom=0;html=1;strokeColor=#666666;fontColor=#333333;rounded=1;shadow=1;glass=0;fontSize=15;" parent="1" vertex="1">
          <mxGeometry x="30" y="390" width="150" height="94" as="geometry" />
        </mxCell>
        <mxCell id="RSJkepZqgb9fMPbeoE4M-12" value="prd_key" style="text;strokeColor=none;fillColor=none;align=left;verticalAlign=top;spacingLeft=4;spacingRight=4;overflow=hidden;rotatable=0;points=[[0,0.5],[1,0.5]];portConstraint=eastwest;whiteSpace=wrap;html=1;fontSize=15;" parent="RSJkepZqgb9fMPbeoE4M-9" vertex="1">
          <mxGeometry y="26" width="150" height="34" as="geometry" />
        </mxCell>
        <mxCell id="RSJkepZqgb9fMPbeoE4M-10" value="cst_id" style="text;strokeColor=none;fillColor=none;align=left;verticalAlign=top;spacingLeft=4;spacingRight=4;overflow=hidden;rotatable=0;points=[[0,0.5],[1,0.5]];portConstraint=eastwest;whiteSpace=wrap;html=1;fontSize=15;" parent="RSJkepZqgb9fMPbeoE4M-9" vertex="1">
          <mxGeometry y="60" width="150" height="34" as="geometry" />
        </mxCell>
        <mxCell id="RSJkepZqgb9fMPbeoE4M-11" value="&lt;font style=&quot;font-size: 14px;&quot;&gt;Transactional Records about Sales &amp;amp; Orders&lt;/font&gt;" style="text;html=1;align=center;verticalAlign=middle;whiteSpace=wrap;rounded=0;" parent="1" vertex="1">
          <mxGeometry x="35" y="350" width="140" height="30" as="geometry" />
        </mxCell>
        <mxCell id="RSJkepZqgb9fMPbeoE4M-15" style="edgeStyle=orthogonalEdgeStyle;rounded=0;orthogonalLoop=1;jettySize=auto;html=1;entryX=0;entryY=0.5;entryDx=0;entryDy=0;" parent="1" source="RSJkepZqgb9fMPbeoE4M-12" target="RSJkepZqgb9fMPbeoE4M-7" edge="1">
          <mxGeometry relative="1" as="geometry" />
        </mxCell>
        <mxCell id="RSJkepZqgb9fMPbeoE4M-16" style="edgeStyle=orthogonalEdgeStyle;rounded=0;orthogonalLoop=1;jettySize=auto;html=1;exitX=1;exitY=0.5;exitDx=0;exitDy=0;entryX=0;entryY=0.5;entryDx=0;entryDy=0;" parent="1" source="RSJkepZqgb9fMPbeoE4M-10" target="RSJkepZqgb9fMPbeoE4M-2" edge="1">
          <mxGeometry relative="1" as="geometry" />
        </mxCell>
        <mxCell id="RSJkepZqgb9fMPbeoE4M-17" value="&lt;b&gt;&lt;font style=&quot;font-size: 16px;&quot;&gt;erp_cust_az12&lt;/font&gt;&lt;/b&gt;" style="swimlane;fontStyle=0;childLayout=stackLayout;horizontal=1;startSize=26;fillColor=#e1d5e7;horizontalStack=0;resizeParent=1;resizeParentMax=0;resizeLast=0;collapsible=1;marginBottom=0;html=1;strokeColor=#9673a6;rounded=1;shadow=1;glass=0;fontSize=15;" parent="1" vertex="1">
          <mxGeometry x="602.5" y="456" width="150" height="70" as="geometry" />
        </mxCell>
        <mxCell id="RSJkepZqgb9fMPbeoE4M-18" value="cid" style="text;strokeColor=none;fillColor=none;align=left;verticalAlign=top;spacingLeft=4;spacingRight=4;overflow=hidden;rotatable=0;points=[[0,0.5],[1,0.5]];portConstraint=eastwest;whiteSpace=wrap;html=1;fontSize=15;" parent="RSJkepZqgb9fMPbeoE4M-17" vertex="1">
          <mxGeometry y="26" width="150" height="44" as="geometry" />
        </mxCell>
        <mxCell id="RSJkepZqgb9fMPbeoE4M-19" value="&lt;font style=&quot;font-size: 14px;&quot;&gt;Extra Customer Information (Birthdate)&lt;/font&gt;" style="text;html=1;align=center;verticalAlign=middle;whiteSpace=wrap;rounded=0;" parent="1" vertex="1">
          <mxGeometry x="580" y="416" width="195" height="30" as="geometry" />
        </mxCell>
        <mxCell id="RSJkepZqgb9fMPbeoE4M-25" value="&lt;b&gt;&lt;font style=&quot;font-size: 16px;&quot;&gt;erp_loc_a101&lt;/font&gt;&lt;/b&gt;" style="swimlane;fontStyle=0;childLayout=stackLayout;horizontal=1;startSize=26;fillColor=#e1d5e7;horizontalStack=0;resizeParent=1;resizeParentMax=0;resizeLast=0;collapsible=1;marginBottom=0;html=1;strokeColor=#9673a6;rounded=1;shadow=1;glass=0;fontSize=15;" parent="1" vertex="1">
          <mxGeometry x="602.5" y="714" width="150" height="70" as="geometry" />
        </mxCell>
        <mxCell id="RSJkepZqgb9fMPbeoE4M-26" value="cid" style="text;strokeColor=none;fillColor=none;align=left;verticalAlign=top;spacingLeft=4;spacingRight=4;overflow=hidden;rotatable=0;points=[[0,0.5],[1,0.5]];portConstraint=eastwest;whiteSpace=wrap;html=1;fontSize=15;" parent="RSJkepZqgb9fMPbeoE4M-25" vertex="1">
          <mxGeometry y="26" width="150" height="44" as="geometry" />
        </mxCell>
        <mxCell id="RSJkepZqgb9fMPbeoE4M-27" value="&lt;font style=&quot;font-size: 14px;&quot;&gt;Extra Customer Information (Country)&lt;/font&gt;" style="text;html=1;align=center;verticalAlign=middle;whiteSpace=wrap;rounded=0;" parent="1" vertex="1">
          <mxGeometry x="580" y="674" width="195" height="30" as="geometry" />
        </mxCell>
        <mxCell id="RSJkepZqgb9fMPbeoE4M-28" style="edgeStyle=orthogonalEdgeStyle;rounded=0;orthogonalLoop=1;jettySize=auto;html=1;entryX=1;entryY=0.5;entryDx=0;entryDy=0;" parent="1" source="RSJkepZqgb9fMPbeoE4M-18" target="RSJkepZqgb9fMPbeoE4M-24" edge="1">
          <mxGeometry relative="1" as="geometry" />
        </mxCell>
        <mxCell id="RSJkepZqgb9fMPbeoE4M-29" style="edgeStyle=orthogonalEdgeStyle;rounded=0;orthogonalLoop=1;jettySize=auto;html=1;exitX=0;exitY=0.5;exitDx=0;exitDy=0;" parent="1" source="RSJkepZqgb9fMPbeoE4M-26" target="RSJkepZqgb9fMPbeoE4M-24" edge="1">
          <mxGeometry relative="1" as="geometry" />
        </mxCell>
        <mxCell id="RSJkepZqgb9fMPbeoE4M-30" value="&lt;b&gt;&lt;font style=&quot;font-size: 16px;&quot;&gt;erp_px_cat_g1v2&lt;/font&gt;&lt;/b&gt;" style="swimlane;fontStyle=0;childLayout=stackLayout;horizontal=1;startSize=26;fillColor=#e1d5e7;horizontalStack=0;resizeParent=1;resizeParentMax=0;resizeLast=0;collapsible=1;marginBottom=0;html=1;strokeColor=#9673a6;rounded=1;shadow=1;glass=0;fontSize=15;" parent="1" vertex="1">
          <mxGeometry x="612.5" y="220" width="150" height="60" as="geometry" />
        </mxCell>
        <mxCell id="RSJkepZqgb9fMPbeoE4M-31" value="id" style="text;strokeColor=none;fillColor=none;align=left;verticalAlign=top;spacingLeft=4;spacingRight=4;overflow=hidden;rotatable=0;points=[[0,0.5],[1,0.5]];portConstraint=eastwest;whiteSpace=wrap;html=1;fontSize=15;" parent="RSJkepZqgb9fMPbeoE4M-30" vertex="1">
          <mxGeometry y="26" width="150" height="34" as="geometry" />
        </mxCell>
        <mxCell id="RSJkepZqgb9fMPbeoE4M-32" value="&lt;font style=&quot;font-size: 14px;&quot;&gt;Products Categories&lt;/font&gt;" style="text;html=1;align=center;verticalAlign=middle;whiteSpace=wrap;rounded=0;" parent="1" vertex="1">
          <mxGeometry x="590" y="180" width="195" height="30" as="geometry" />
        </mxCell>
        <mxCell id="RSJkepZqgb9fMPbeoE4M-33" style="edgeStyle=orthogonalEdgeStyle;rounded=0;orthogonalLoop=1;jettySize=auto;html=1;entryX=1;entryY=0.5;entryDx=0;entryDy=0;" parent="1" source="RSJkepZqgb9fMPbeoE4M-31" target="RSJkepZqgb9fMPbeoE4M-7" edge="1">
          <mxGeometry relative="1" as="geometry" />
        </mxCell>
        <mxCell id="RSJkepZqgb9fMPbeoE4M-34" value="" style="rounded=1;whiteSpace=wrap;html=1;fillColor=none;dashed=1;dashPattern=1 4;fontColor=#333333;strokeColor=#666666;" parent="1" vertex="1">
          <mxGeometry x="20" y="150" width="430" height="670" as="geometry" />
        </mxCell>
        <mxCell id="RSJkepZqgb9fMPbeoE4M-35" value="" style="rounded=1;whiteSpace=wrap;html=1;fillColor=none;strokeColor=#9673a6;dashed=1;dashPattern=1 4;" parent="1" vertex="1">
          <mxGeometry x="480" y="140" width="347.5" height="680" as="geometry" />
        </mxCell>
        <mxCell id="RSJkepZqgb9fMPbeoE4M-36" value="&lt;font style=&quot;font-size: 21px;&quot;&gt;&lt;b&gt;CRM&lt;/b&gt;&lt;/font&gt;" style="rounded=1;whiteSpace=wrap;html=1;fillColor=#f5f5f5;fontColor=#333333;strokeColor=#666666;" parent="1" vertex="1">
          <mxGeometry x="135" y="130" width="200" height="40" as="geometry" />
        </mxCell>
        <mxCell id="RSJkepZqgb9fMPbeoE4M-37" value="&lt;font style=&quot;font-size: 21px;&quot;&gt;&lt;b&gt;ERP&lt;/b&gt;&lt;/font&gt;" style="rounded=1;whiteSpace=wrap;html=1;fillColor=#e1d5e7;strokeColor=#9673a6;" parent="1" vertex="1">
          <mxGeometry x="562.5" y="120" width="200" height="40" as="geometry" />
        </mxCell>
        <mxCell id="jbMyLcY9hEHW4_KWkW4v-1" value="&lt;b&gt;&lt;font style=&quot;font-size: 15px;&quot;&gt;PRODUCTS&lt;/font&gt;&lt;/b&gt;" style="text;html=1;strokeColor=#82b366;fillColor=#d5e8d4;align=center;verticalAlign=middle;whiteSpace=wrap;overflow=hidden;" parent="1" vertex="1">
          <mxGeometry x="280" y="280" width="150" height="20" as="geometry" />
        </mxCell>
        <mxCell id="jbMyLcY9hEHW4_KWkW4v-3" value="&lt;span style=&quot;font-size: 15px;&quot;&gt;&lt;b&gt;CUSTOMERS&lt;/b&gt;&lt;/span&gt;" style="text;html=1;strokeColor=#6c8ebf;fillColor=#dae8fc;align=center;verticalAlign=middle;whiteSpace=wrap;overflow=hidden;" parent="1" vertex="1">
          <mxGeometry x="285" y="670" width="150" height="20" as="geometry" />
        </mxCell>
        <mxCell id="jbMyLcY9hEHW4_KWkW4v-4" value="&lt;b&gt;&lt;font style=&quot;font-size: 15px;&quot;&gt;PRODUCTS&lt;/font&gt;&lt;/b&gt;" style="text;html=1;strokeColor=#82b366;fillColor=#d5e8d4;align=center;verticalAlign=middle;whiteSpace=wrap;overflow=hidden;" parent="1" vertex="1">
          <mxGeometry x="612.5" y="280" width="150" height="20" as="geometry" />
        </mxCell>
        <mxCell id="jbMyLcY9hEHW4_KWkW4v-5" value="&lt;span style=&quot;font-size: 15px;&quot;&gt;&lt;b&gt;CUSTOMERS&lt;/b&gt;&lt;/span&gt;" style="text;html=1;strokeColor=#6c8ebf;fillColor=#dae8fc;align=center;verticalAlign=middle;whiteSpace=wrap;overflow=hidden;" parent="1" vertex="1">
          <mxGeometry x="602.5" y="780" width="150" height="20" as="geometry" />
        </mxCell>
        <mxCell id="jbMyLcY9hEHW4_KWkW4v-6" value="&lt;span style=&quot;font-size: 15px;&quot;&gt;&lt;b&gt;CUSTOMERS&lt;/b&gt;&lt;/span&gt;" style="text;html=1;strokeColor=#6c8ebf;fillColor=#dae8fc;align=center;verticalAlign=middle;whiteSpace=wrap;overflow=hidden;" parent="1" vertex="1">
          <mxGeometry x="602.5" y="526" width="150" height="20" as="geometry" />
        </mxCell>
        <mxCell id="jbMyLcY9hEHW4_KWkW4v-7" value="&lt;span style=&quot;font-size: 15px;&quot;&gt;&lt;b&gt;SALES&lt;/b&gt;&lt;/span&gt;" style="text;html=1;strokeColor=#d79b00;fillColor=#ffe6cc;align=center;verticalAlign=middle;whiteSpace=wrap;overflow=hidden;" parent="1" vertex="1">
          <mxGeometry x="30" y="484" width="150" height="20" as="geometry" />
        </mxCell>
      </root>
    </mxGraphModel>
  </diagram>
</mxfile>
